<svg enable-background="new 0 0 512 512" viewBox="0 0 512 512" xmlns="http://www.w3.org/2000/svg"><path d="m256 0c-140.785 0-256 117.608-256 257 0 140.61 115.39 255 256 255 137.53 0 256-112.902 256-255 0-137.687-113.59-257-256-257zm15 92.09 62.657-45.991c40.547 14.982 75.553 41.235 101.29 75.06l-25.421 72.9-72.323 22.189-66.203-50.218zm-92.679-45.984 62.779 46v73.813l-68.759 46.538-66.989-22.731-23.458-75.036c25.199-30.772 58.458-54.55 96.427-68.584zm-110.85 333.309c-22.077-33.887-36.202-74.026-37.205-117.164l64.781-44.333 67.861 23.027 26.008 81.096-43.204 57.962zm246.042 94.856c-18.394 4.876-37.606 7.729-57.513 7.729-21.976 0-43.169-3.309-63.261-9.21l-22.917-74.932 42.969-57.916h83.751l42.29 59.657zm50.517-90.985-43.358-61.364 24.913-76.868 72.75-22.319 63.06 46.198c-2.27 42.971-17.459 82.789-40.594 116.083z"/></svg>
